<svg width="30" height="27" viewBox="0 0 30 27" fill="none" xmlns="http://www.w3.org/2000/svg">
<path d="M11.9133 1.70133C13.4986 3.05048 14.3987 5.17182 14.5652 5.75601C14.792 4.9672 15.616 4.45474 15.9733 4.15437C16.716 3.58601 17.7488 2.95983 19.1156 2.2948C22.1521 1.36428 24.6341 0.676237 26.6837 1.64734C27.5598 2.06244 28.3756 2.59044 28.8384 3.43148C29.3188 4.30467 29.7839 5.38321 29.7817 6.68685C29.7772 9.3332 31.0082 13.1225 24.2817 21.6219C21.9947 24.5117 19.3646 26.7781 17.1359 26.6125C15.2822 26.4748 11.9062 25.2946 10.2817 24.1219C7.78764 22.3216 5.0312 20.5377 3.28172 17.6219C1.78172 15.1219 0.781708 14.1219 0.281697 11.122C-0.750291 4.93018 1.28172 3.43147 2.69 1.69671C4.82166 -0.929145 9.7124 -0.171711 11.9133 1.70133Z" fill="#887869"/>
<path d="M10.2556 10.0969C10.3807 10.1988 10.3903 9.66277 10.5377 9.71877C10.6822 9.77563 10.7356 10.0517 10.8797 9.97211C11.026 9.89256 11.1958 10.0703 11.2531 9.94996C11.3119 9.8295 11.3468 10.1764 11.4353 10.0924C11.5253 10.0085 11.5875 10.0503 11.6762 10.159C11.7666 10.2671 12.0201 10.354 12.1086 10.2134C12.1992 10.072 12.3078 10.3124 12.3704 10.3695C12.39 10.3873 12.4055 10.4117 12.4173 10.4371C12.4223 10.4479 12.4246 10.4704 12.4246 10.4927C12.4246 10.4927 12.4246 10.4927 12.4246 10.4927C12.4246 10.5204 12.421 10.5476 12.4146 10.5512C12.3838 10.5682 12.3377 10.6131 12.2853 10.7141C12.1892 10.9027 12.1737 10.6957 12.0422 10.7955C11.9101 10.8958 11.8415 11.0911 11.6794 10.9754C11.5146 10.8607 11.518 11.3816 11.278 11.1058C11.0316 10.8321 11.0611 11.3766 10.8612 11.4734C10.6621 11.5703 10.3515 11.3146 10.2266 11.3619C10.1017 11.4087 9.94516 11.5024 9.75176 11.4703C9.5561 11.4385 9.37996 11.667 9.1546 11.5955C8.92821 11.523 8.60411 11.4546 8.44146 11.397C8.27794 11.3393 8.23652 11.3283 8.13986 11.4373C8.08322 11.5007 7.9801 11.5048 7.84151 11.4153C7.77271 11.3701 7.73607 11.2785 7.75929 11.2156C7.79417 11.1234 7.86459 11.1433 7.85044 11.0161C7.82271 10.7618 7.82191 10.6606 7.96046 10.7603C8.09589 10.8616 8.0259 10.5422 8.09043 10.5589C8.15622 10.5761 8.21455 10.7552 8.42649 10.5327C8.64265 10.311 8.77926 10.2368 8.87076 10.1758C8.96311 10.1146 9.21064 10.2243 9.36025 10.1301C9.51146 10.034 9.85469 10.0233 9.9742 9.90406C10.0921 9.78439 10.1308 9.99535 10.2556 10.0969ZM21.4222 9.25187C21.4865 9.38549 21.6608 8.88051 21.7608 8.97907C21.86 9.07823 21.8087 9.35412 21.9499 9.32586C22.0963 9.29938 22.166 9.52348 22.2601 9.43442C22.3586 9.34691 22.2428 9.67523 22.3503 9.63417C22.4581 9.59395 22.4964 9.66079 22.5136 9.79566C22.5387 9.93179 22.6635 10.1201 22.825 10.0861C22.9997 10.0548 22.9 10.3222 22.8691 10.3946C22.8624 10.4202 22.8462 10.4437 22.8269 10.4631C22.8187 10.4714 22.7985 10.4817 22.778 10.4902C22.7779 10.4902 22.7779 10.4902 22.7779 10.4902C22.7523 10.5007 22.7262 10.5088 22.7213 10.5063C22.698 10.4944 22.6412 10.4845 22.5446 10.523C22.372 10.6062 22.5261 10.4664 22.4013 10.4872C22.278 10.5155 22.1584 10.6683 22.128 10.5147C22.0792 10.3562 21.8763 10.8341 21.8361 10.509C21.7725 10.1796 21.6003 10.6977 21.4412 10.7334C21.2808 10.7691 21.1348 10.4375 21.0285 10.4461C20.9251 10.4547 20.7834 10.4983 20.6486 10.41C20.5119 10.3212 20.3159 10.4842 20.1657 10.3441C20.0146 10.2033 19.7908 10.0291 19.6852 9.91663C19.5804 9.80403 19.5535 9.77872 19.4465 9.84256C19.3852 9.87934 19.3034 9.84227 19.2328 9.70198C19.198 9.63139 19.2053 9.53315 19.2417 9.48623C19.2957 9.41767 19.3401 9.46413 19.3692 9.34178C19.4295 9.09733 19.4563 9.00367 19.5248 9.14824C19.5925 9.29288 19.6351 8.96973 19.6772 9.00862C19.7176 9.04779 19.709 9.23778 19.9274 9.10142C20.1481 8.96594 20.2696 8.93834 20.3541 8.90966C20.4392 8.88103 20.5932 9.06202 20.7319 9.01749C20.8719 8.97203 21.136 9.06337 21.2625 8.9852C21.3904 8.90663 21.3556 9.1182 21.4222 9.25187ZM17.9243 14.8988C17.81 15.0135 18.3424 15.0814 18.2715 15.2252C18.2 15.3674 17.92 15.3922 17.9834 15.5487C18.0466 15.7109 17.8494 15.8644 17.9609 15.9426C18.0722 16.0232 17.7243 16.0073 17.7939 16.1161C17.8632 16.223 17.8106 16.2885 17.6865 16.3624C17.5636 16.4435 17.4211 16.6757 17.506 16.8315C17.5951 16.9992 17.2887 17.0425 17.1914 17.0436C17.1584 17.0496 17.1269 17.0419 17.1015 17.0281C17.0906 17.0222 17.0768 17.0042 17.0653 16.9851C17.0653 16.9851 17.0653 16.9851 17.0653 16.9851C17.051 16.9614 17.0393 16.9367 17.0412 16.9312C17.0518 16.9046 17.0487 16.8436 16.9825 16.7613C16.8489 16.6207 17.0373 16.7096 16.9824 16.5687C16.9208 16.4314 16.7415 16.3421 16.8832 16.2173C17.0235 16.079 16.5075 16.0138 16.8113 15.8189C17.1126 15.6082 16.5677 15.5757 16.4927 15.366C16.4172 15.1563 16.7029 14.8643 16.6691 14.7302C16.6358 14.5974 16.5593 14.4225 16.6138 14.225C16.6684 14.0263 16.4638 13.8086 16.5668 13.583C16.6701 13.3569 16.7913 13.0337 16.879 12.8788C16.9666 12.7226 16.9858 12.6844 16.9001 12.5601C16.8506 12.4874 16.8696 12.3764 16.9932 12.2636C17.0555 12.2078 17.154 12.2014 17.2079 12.2394C17.2866 12.2955 17.2503 12.3598 17.3769 12.375C17.6302 12.4075 17.7281 12.4248 17.6 12.5347C17.4722 12.6465 17.7989 12.639 17.7695 12.6978C17.7398 12.7567 17.5508 12.7798 17.7319 13.0254C17.9125 13.2717 17.9664 13.416 18.013 13.5128C18.0597 13.6111 17.917 13.8399 17.9919 13.9998C18.0678 14.1602 18.0397 14.504 18.1457 14.6359C18.2522 14.7688 18.0382 14.7817 17.9243 14.8988ZM17.1803 20.3304C17.2642 20.4501 17.3306 19.9211 17.4328 19.9959C17.5355 20.0707 17.5502 20.3513 17.6679 20.2881C17.7847 20.225 17.9033 20.4169 17.9542 20.3016C18.0069 20.1863 18.013 20.535 18.0864 20.4575C18.1597 20.3801 18.207 20.4256 18.2696 20.5389C18.3379 20.6523 18.5316 20.749 18.6075 20.6098C18.677 20.4706 18.7597 20.7121 18.8124 20.7694C18.8279 20.7873 18.8393 20.8117 18.8479 20.8371C18.8515 20.8479 18.8531 20.8704 18.8531 20.8927C18.8531 20.8927 18.8531 20.8927 18.8531 20.8927C18.8531 20.9204 18.8506 20.9477 18.8459 20.9512C18.8245 20.9681 18.7824 21.013 18.7415 21.1134C18.6601 21.3007 18.6536 21.0937 18.5406 21.19C18.4338 21.2862 18.3661 21.4787 18.2368 21.3542C18.1079 21.2298 18.0783 21.7505 17.8961 21.4554C17.713 21.1604 17.694 21.7049 17.513 21.7773C17.3313 21.8497 17.1025 21.5493 16.9927 21.5742C16.8838 21.5991 16.7354 21.6625 16.5814 21.5907C16.4262 21.5188 16.234 21.7002 16.0627 21.572C15.8921 21.4438 15.648 21.2818 15.538 21.1733C15.5368 21.1699 15.5293 21.1666 15.5262 21.1634C15.5245 21.1618 15.5235 21.1602 15.5232 21.1586C15.5232 21.1584 15.5231 21.1582 15.5231 21.158C15.5231 21.1579 15.5231 21.1578 15.5231 21.1577C15.5231 21.1577 15.5231 21.1576 15.5231 21.1576C15.5231 21.1575 15.5231 21.1575 15.5231 21.1575C15.5231 21.1575 15.5231 21.1575 15.5231 21.1575C15.5231 21.1575 15.5231 21.1575 15.5231 21.1575C15.5231 21.1575 15.5231 21.1575 15.5231 21.1575C15.5231 21.1575 15.5231 21.1575 15.5231 21.1575C15.5231 21.1575 15.5231 21.1575 15.5231 21.1575C15.5231 21.1575 15.5231 21.1575 15.5231 21.1575C15.5231 21.1575 15.5231 21.1575 15.5231 21.1575C15.5231 20.0223 15.5231 20.799 15.5231 20.6198C15.5231 20.6198 15.5231 20.6198 15.5231 20.6198C15.5231 20.6198 15.5231 20.6198 15.5231 20.6198C15.5231 20.6198 15.5231 20.6198 15.5231 20.6198C15.5231 20.6198 15.5231 20.6198 15.5231 20.6198C15.5231 20.6198 15.5231 20.6198 15.5231 20.6198C15.5231 20.6198 15.5231 20.6198 15.5231 20.6198C15.5231 20.6198 15.5231 20.6198 15.5231 20.6198C15.5231 20.6198 15.5231 20.6198 15.5231 20.6198C15.5231 20.6202 15.5232 20.6206 15.5233 20.621C15.5234 20.6218 15.5238 20.6225 15.5243 20.6233C15.5311 20.6294 15.5387 20.6352 15.5426 20.6407C15.5512 20.6516 15.5701 20.6612 15.5763 20.6695C15.5929 20.686 15.6109 20.6971 15.6315 20.7028C15.6592 20.7142 15.7023 20.7038 15.7508 20.6706C15.8123 20.6325 15.8945 20.6684 15.9705 20.8086C16.01 20.8792 16.0006 20.9774 15.9615 21.0244C15.9046 21.0931 15.8659 21.0472 15.839 21.17C15.7764 21.4153 15.7643 21.5094 15.6888 21.3666C15.6223 21.2238 15.5899 21.5483 15.5467 21.511C15.5398 21.5016 15.5256 21.4827 15.5231 21.4618C15.5231 21.4617 15.5231 21.4617 15.5231 21.4617C15.5231 21.4617 15.5231 21.4617 15.5231 21.4617C15.5231 21.4617 15.5231 21.4617 15.5231 21.4617C15.5231 21.4617 15.5231 21.4617 15.5231 21.4617C15.5231 21.4617 15.5231 21.4617 15.5231 21.4617C15.5231 21.4617 15.5231 21.4617 15.5231 21.4617C15.5231 21.4617 15.5231 21.4617 15.5231 21.4617C15.5231 21.4617 15.5231 21.4617 15.5231 21.4617C15.5231 21.4617 15.5231 21.4617 15.5231 21.4617C15.5231 22.0984 15.5231 19.6788 15.5231 20.3156C15.5231 20.3156 15.5231 20.3156 15.5231 20.3156C15.5231 20.3156 15.5231 20.3156 15.5231 20.3156C15.5231 20.3156 15.5231 20.3156 15.5231 20.3156C15.5231 20.3156 15.5231 20.3156 15.5231 20.3156C15.5231 20.3156 15.5231 20.3156 15.5231 20.3156C15.5231 20.3156 15.5231 20.3156 15.5231 20.3156C15.5231 20.3156 15.5231 20.3156 15.5231 20.3156C15.5231 20.3156 15.5231 20.3157 15.5231 20.3157C15.5231 20.3158 15.5231 20.3159 15.5231 20.316C15.5231 20.3161 15.5231 20.3163 15.5231 20.3164C15.5231 20.3168 15.5231 20.3171 15.5232 20.3174C15.5232 20.3181 15.5233 20.3187 15.5233 20.3194C15.5235 20.3207 15.5237 20.322 15.524 20.3234C15.5247 20.326 15.5256 20.3287 15.527 20.3314C15.5291 20.3367 15.5362 20.3421 15.5368 20.3473C15.5409 20.3577 15.5463 20.3677 15.5547 20.3762C15.5858 20.4103 15.6372 20.4213 15.7394 20.3476C15.9487 20.2001 16.0556 20.1625 16.1371 20.1271C16.212 20.0917 16.3777 20.2578 16.5032 20.1978C16.631 20.1379 16.888 20.1928 16.9921 20.0947C17.096 19.9965 17.0965 20.2107 17.1803 20.3304ZM17.6256 22.402C17.5059 22.4131 18.0349 22.4217 17.9601 22.4352C17.8854 22.4486 17.6048 22.4507 17.6679 22.4661C17.731 22.4815 17.5391 22.4969 17.6544 22.5037C17.7697 22.5106 17.4211 22.5113 17.4985 22.5211C17.5759 22.5308 17.5304 22.5367 17.4171 22.5452C17.3038 22.5537 17.207 22.5799 17.3462 22.5894C17.4854 22.5989 17.2439 22.6098 17.1866 22.6163C17.1688 22.6184 17.1443 22.62 17.1189 22.6212C17.1082 22.6217 17.0856 22.6219 17.0634 22.6219C17.0634 22.6219 17.0633 22.6219 17.0633 22.6219C17.0356 22.6219 17.0084 22.6216 17.0049 22.6209C16.9879 22.6177 16.9431 22.6128 16.8426 22.6071C16.6553 22.5964 16.8623 22.5953 16.766 22.5808C16.6698 22.5664 16.4774 22.5578 16.6018 22.5408C16.7262 22.5239 16.2055 22.52 16.5006 22.496C16.7957 22.4721 16.2511 22.4696 16.1787 22.4457C16.1063 22.4219 16.4068 22.3918 16.3819 22.3774C16.3569 22.363 16.2935 22.3437 16.3654 22.3233C16.4372 22.3029 16.2558 22.2778 16.384 22.2552C16.5123 22.2327 16.6742 22.2009 16.7827 22.1862C16.8913 22.1715 16.9157 22.168 16.8494 22.1538C16.8113 22.1457 16.8472 22.1345 16.9874 22.125C17.058 22.1203 17.1562 22.1213 17.2032 22.1261C17.2719 22.1331 17.226 22.1389 17.3488 22.1425C17.5941 22.1497 17.6882 22.1528 17.5454 22.1619C17.4026 22.171 17.7271 22.1753 17.6898 22.1806C17.6524 22.1859 17.461 22.1858 17.6085 22.2128C17.7559 22.2398 17.7936 22.2546 17.829 22.2649C17.8644 22.2751 17.6983 22.2964 17.7582 22.3131C17.8182 22.3298 17.7632 22.3636 17.8614 22.3773C17.9595 22.391 17.7453 22.391 17.6256 22.402Z" fill="white"/>
</svg>
